<svg xmlns="http://www.w3.org/2000/svg" width="512" height="512" viewBox="0 0 512 512" version="1.1">
	<path d="M 248.196 1.897 C 242.485 3.870, 238.147 7.433, 234.680 13 C 232.579 16.374, 232.481 17.753, 231.976 51.190 C 231.688 70.270, 231.204 86.129, 230.900 86.433 C 230.596 86.737, 225.657 87.452, 219.924 88.022 C 170.103 92.973, 120.252 110.797, 86.500 135.728 C 72.811 145.840, 54.757 164.484, 46.128 177.421 C 25.807 207.885, 16 241.601, 16 281 C 16 387.515, 91.710 480.145, 199.500 505.510 C 215.267 509.220, 229.149 510.999, 247.500 511.661 C 315.697 514.123, 381.190 488.609, 428.784 441.038 C 465.399 404.442, 487.534 359.670, 494.559 308 C 497.077 289.473, 496.123 258.233, 492.512 241 C 477.127 167.586, 423.839 117.811, 337.459 96.168 C 322.373 92.388, 302.070 88.907, 286.750 87.473 L 280 86.841 280 52.736 C 280 20.353, 279.896 18.417, 277.942 14.379 C 275.087 8.482, 269.134 3.414, 262.878 1.556 C 256.290 -0.400, 254.743 -0.364, 248.196 1.897" stroke="none" fill="black" fill-rule="evenodd"/>
</svg>