<?xml version="1.0" encoding="utf-8"?>
<!-- Generator: Adobe Illustrator 23.0.1, SVG Export Plug-In . SVG Version: 6.00 Build 0)  -->
<svg version="1.1" id="圖層_1" xmlns="http://www.w3.org/2000/svg" xmlns:xlink="http://www.w3.org/1999/xlink" x="0px" y="0px"
	 viewBox="0 0 24 24" style="enable-background:new 0 0 24 24;" xml:space="preserve">
<style type="text/css">
	.st0{clip-path:url(#SVGID_2_);}
	.st1{fill:none;stroke:#E8E8E8;stroke-width:2;stroke-linecap:round;stroke-linejoin:round;}
	.st2{fill:#E8E8E8;}
</style>
<g>
	<defs>
		<rect id="SVGID_1_" width="24" height="24"/>
	</defs>
	<clipPath id="SVGID_2_">
		<use xlink:href="#SVGID_1_"  style="overflow:visible;"/>
	</clipPath>
	<g id="icon-bell" class="st0">
		<g id="Group_81" transform="translate(-342 -393)">
			<g id="Group_82" transform="translate(345 395)">
				<path id="Path_5" class="st1" d="M15,6c0-3.3-2.7-6-6-6S3,2.7,3,6c0,7-3,9-3,9h18C18,15,15,13,15,6"/>
				<path id="Path_6" class="st1" d="M10.7,19C10.2,20,9,20.3,8,19.7c-0.3-0.2-0.6-0.4-0.7-0.7"/>
			</g>
		</g>
	</g>
</g>
<path class="st2" d="M21,19.1L3.8,4.5C3.2,4,2.5,4.1,2,4.6l0,0C1.6,5.2,1.6,6,2.1,6.4L19.3,21c0.5,0.4,1.3,0.4,1.8-0.1l0,0
	C21.5,20.3,21.5,19.6,21,19.1z"/>
</svg>
